<svg width="469" height="779" viewBox="0 0 469 779" fill="none" xmlns="http://www.w3.org/2000/svg">
<mask id="mask0" mask-type="alpha" maskUnits="userSpaceOnUse" x="0" y="0" width="469" height="779">
<rect width="469" height="779" fill="#C4C4C4"/>
</mask>
<g mask="url(#mask0)">
<path fill-rule="evenodd" clip-rule="evenodd" d="M233.166 33.2012C298.265 -0.969184 374.961 27.8137 448.333 32.5045C519.13 37.0306 598.186 16.4585 654.106 60.1122C710.051 103.785 716.031 183.702 730.912 253.098C744.772 317.731 754.403 382.701 736.954 446.459C718.308 514.586 687.012 581.933 629.64 623.133C571.337 665.001 496.74 672.195 424.981 670.494C352.398 668.774 272.291 664.115 220.308 613.431C169.756 564.143 182.917 482.646 162.882 414.946C142.548 346.231 89.19 284.683 102.165 214.208C115.989 139.122 165.565 68.6848 233.166 33.2012Z" stroke="#141414" stroke-width="3"/>
<path fill-rule="evenodd" clip-rule="evenodd" d="M15.9116 335.775C16.9389 263.576 62.728 197.087 118.199 150.862C169.344 108.242 238.774 103.079 304.857 94.9924C364.795 87.6575 422.703 91.4905 481.209 106.44C551.264 124.34 631.119 132.849 675.727 189.755C722.227 249.074 724.64 331.619 716.457 406.546C708.324 481.005 678.949 551.267 630.046 608.002C580.492 665.492 515.948 710.532 441.538 725.493C367.81 740.317 287.961 729.761 224.402 689.563C165.252 652.153 148.513 577.992 112.979 517.695C77.208 456.995 14.9092 406.224 15.9116 335.775Z" stroke="#141414" stroke-width="3"/>
<path fill-rule="evenodd" clip-rule="evenodd" d="M359.295 139.541C408.873 144.739 457.85 139.235 505.64 153.416C563.209 170.499 632.599 179.846 665.16 230.302C697.638 280.632 672.472 347.082 669.213 406.893C666.125 463.565 673.446 522.759 646.502 572.712C619.276 623.188 567.363 652.787 519.522 684.414C469.09 717.755 419.319 769.798 359.295 762.584C298.617 755.292 265.243 689.334 219.86 648.402C183.587 615.687 149.214 583.975 118.843 545.718C83.8788 501.674 37.0061 462.424 28.1373 406.893C18.9284 349.232 40.7004 290.378 69.9966 239.866C99.2617 189.409 138.984 139.869 194.094 120.757C247.364 102.284 303.22 133.663 359.295 139.541Z" stroke="#141414" stroke-width="3"/>
</g>
</svg>
