<svg width="1191" height="351" viewBox="0 0 1191 351" fill="none" xmlns="http://www.w3.org/2000/svg">
<path d="M109.426 107.589L106.459 111.614L106.459 111.614L109.426 107.589ZM105.728 86.5875L101.564 83.8187L101.564 83.8187L105.728 86.5875ZM143.315 132.574L140.348 136.599L143.315 132.574ZM169.6 111.824L174.331 110.207L174.331 110.207L169.6 111.824ZM160.855 101.46L158.517 105.88L158.517 105.88L160.855 101.46ZM123.902 81.9106L121.563 86.3302L123.902 81.9106ZM176.9 145.527L179.867 149.552L179.867 149.552L176.9 145.527ZM195.529 148.808L191.366 151.577L191.366 151.577L195.529 148.808ZM108.609 195.875L105.642 191.85L105.642 191.85L108.609 195.875ZM105.165 215.429L101.002 218.198L101.002 218.198L105.165 215.429ZM123.795 218.71L126.762 222.734L126.762 222.734L123.795 218.71ZM192.086 168.362L195.053 172.386L195.053 172.386L192.086 168.362ZM112.393 103.565C107.994 100.321 106.864 93.9077 109.891 89.3562L101.564 83.8187C95.5833 92.8122 97.7656 105.204 106.459 111.614L112.393 103.565ZM146.282 128.55L112.393 103.565L106.459 111.614L140.348 136.599L146.282 128.55ZM164.869 113.441C167.007 119.697 164.728 125.277 160.743 128.423C156.791 131.543 151.272 132.228 146.282 128.55L140.348 136.599C149.313 143.208 159.802 141.906 166.939 136.272C174.041 130.666 177.927 120.727 174.331 110.207L164.869 113.441ZM158.517 105.88C161.428 107.42 163.732 110.115 164.869 113.441L174.331 110.207C172.398 104.551 168.429 99.8105 163.193 97.0407L158.517 105.88ZM121.563 86.3302L158.517 105.88L163.193 97.0407L126.24 77.491L121.563 86.3302ZM109.891 89.3562C112.525 85.3951 117.455 84.1568 121.563 86.3302L126.24 77.491C117.541 72.8892 107.01 75.6297 101.564 83.8187L109.891 89.3562ZM179.867 149.552C183.663 146.753 188.754 147.649 191.366 151.577L199.693 146.039C193.917 137.355 182.327 135.314 173.933 141.503L179.867 149.552ZM111.576 199.899L179.867 149.552L173.933 141.503L105.642 191.85L111.576 199.899ZM109.329 212.66C106.612 208.575 107.628 202.81 111.576 199.899L105.642 191.85C97.3997 197.927 95.3315 209.671 101.002 218.198L109.329 212.66ZM120.828 214.685C117.031 217.484 111.94 216.587 109.329 212.66L101.002 218.198C106.777 226.882 118.367 228.923 126.762 222.734L120.828 214.685ZM189.119 164.337L120.828 214.685L126.762 222.734L195.053 172.386L189.119 164.337ZM191.366 151.577C194.082 155.661 193.067 161.426 189.119 164.337L195.053 172.386C203.295 166.31 205.363 154.566 199.693 146.039L191.366 151.577Z" fill="#00BB56"/>
<path fill-rule="evenodd" clip-rule="evenodd" d="M92.7248 138.828C88.5314 132.523 80.1908 131.054 74.0956 135.548L5.80451 185.895C1.99155 188.706 -0.0394941 193.185 0.000648915 197.688C-0.0416973 202.194 1.98948 206.676 5.80445 209.488L74.0955 259.836C80.1908 264.33 88.5314 262.861 92.7248 256.555C96.9182 250.25 95.3764 241.495 89.2812 237.001L35.9622 197.692L89.2812 158.382C95.3765 153.889 96.9182 145.134 92.7248 138.828Z" fill="#00BB56"/>
<path d="M309.166 198.6H282.966L278.766 211H260.866L286.266 140.8H306.066L331.466 211H313.366L309.166 198.6ZM304.766 185.4L296.066 159.7L287.466 185.4H304.766ZM378.196 154.6C384.729 154.6 389.929 156.733 393.796 161C397.729 165.2 399.696 171 399.696 178.4V211H382.696V180.7C382.696 176.967 381.729 174.067 379.796 172C377.863 169.933 375.263 168.9 371.996 168.9C368.729 168.9 366.129 169.933 364.196 172C362.263 174.067 361.296 176.967 361.296 180.7V211H344.196V155.2H361.296V162.6C363.029 160.133 365.363 158.2 368.296 156.8C371.229 155.333 374.529 154.6 378.196 154.6ZM413.179 183C413.179 177.267 414.246 172.233 416.379 167.9C418.579 163.567 421.546 160.233 425.279 157.9C429.012 155.567 433.179 154.4 437.779 154.4C441.446 154.4 444.779 155.167 447.779 156.7C450.846 158.233 453.246 160.3 454.979 162.9V137H472.079V211H454.979V203C453.379 205.667 451.079 207.8 448.079 209.4C445.146 211 441.712 211.8 437.779 211.8C433.179 211.8 429.012 210.633 425.279 208.3C421.546 205.9 418.579 202.533 416.379 198.2C414.246 193.8 413.179 188.733 413.179 183ZM454.979 183.1C454.979 178.833 453.779 175.467 451.379 173C449.046 170.533 446.179 169.3 442.779 169.3C439.379 169.3 436.479 170.533 434.079 173C431.746 175.4 430.579 178.733 430.579 183C430.579 187.267 431.746 190.667 434.079 193.2C436.479 195.667 439.379 196.9 442.779 196.9C446.179 196.9 449.046 195.667 451.379 193.2C453.779 190.733 454.979 187.367 454.979 183.1ZM542.05 182.2C542.05 183.8 541.95 185.467 541.75 187.2H503.05C503.317 190.667 504.417 193.333 506.35 195.2C508.35 197 510.783 197.9 513.65 197.9C517.917 197.9 520.883 196.1 522.55 192.5H540.75C539.817 196.167 538.117 199.467 535.65 202.4C533.25 205.333 530.217 207.633 526.55 209.3C522.883 210.967 518.783 211.8 514.25 211.8C508.783 211.8 503.917 210.633 499.65 208.3C495.383 205.967 492.05 202.633 489.65 198.3C487.25 193.967 486.05 188.9 486.05 183.1C486.05 177.3 487.217 172.233 489.55 167.9C491.95 163.567 495.283 160.233 499.55 157.9C503.817 155.567 508.717 154.4 514.25 154.4C519.65 154.4 524.45 155.533 528.65 157.8C532.85 160.067 536.117 163.3 538.45 167.5C540.85 171.7 542.05 176.6 542.05 182.2ZM524.55 177.7C524.55 174.767 523.55 172.433 521.55 170.7C519.55 168.967 517.05 168.1 514.05 168.1C511.183 168.1 508.75 168.933 506.75 170.6C504.817 172.267 503.617 174.633 503.15 177.7H524.55ZM573.171 164.5C575.171 161.433 577.671 159.033 580.671 157.3C583.671 155.5 587.004 154.6 590.671 154.6V172.7H585.971C581.704 172.7 578.504 173.633 576.371 175.5C574.238 177.3 573.171 180.5 573.171 185.1V211H556.071V155.2H573.171V164.5ZM626.545 211.8C621.678 211.8 617.345 210.967 613.545 209.3C609.745 207.633 606.745 205.367 604.545 202.5C602.345 199.567 601.111 196.3 600.845 192.7H617.745C617.945 194.633 618.845 196.2 620.445 197.4C622.045 198.6 624.011 199.2 626.345 199.2C628.478 199.2 630.111 198.8 631.245 198C632.445 197.133 633.045 196.033 633.045 194.7C633.045 193.1 632.211 191.933 630.545 191.2C628.878 190.4 626.178 189.533 622.445 188.6C618.445 187.667 615.111 186.7 612.445 185.7C609.778 184.633 607.478 183 605.545 180.8C603.611 178.533 602.645 175.5 602.645 171.7C602.645 168.5 603.511 165.6 605.245 163C607.045 160.333 609.645 158.233 613.045 156.7C616.511 155.167 620.611 154.4 625.345 154.4C632.345 154.4 637.845 156.133 641.845 159.6C645.911 163.067 648.245 167.667 648.845 173.4H633.045C632.778 171.467 631.911 169.933 630.445 168.8C629.045 167.667 627.178 167.1 624.845 167.1C622.845 167.1 621.311 167.5 620.245 168.3C619.178 169.033 618.645 170.067 618.645 171.4C618.645 173 619.478 174.2 621.145 175C622.878 175.8 625.545 176.6 629.145 177.4C633.278 178.467 636.645 179.533 639.245 180.6C641.845 181.6 644.111 183.267 646.045 185.6C648.045 187.867 649.078 190.933 649.145 194.8C649.145 198.067 648.211 201 646.345 203.6C644.545 206.133 641.911 208.133 638.445 209.6C635.045 211.067 631.078 211.8 626.545 211.8ZM690.006 211.8C684.54 211.8 679.606 210.633 675.206 208.3C670.873 205.967 667.44 202.633 664.906 198.3C662.44 193.967 661.206 188.9 661.206 183.1C661.206 177.367 662.473 172.333 665.006 168C667.54 163.6 671.006 160.233 675.406 157.9C679.806 155.567 684.74 154.4 690.206 154.4C695.673 154.4 700.606 155.567 705.006 157.9C709.406 160.233 712.873 163.6 715.406 168C717.94 172.333 719.206 177.367 719.206 183.1C719.206 188.833 717.906 193.9 715.306 198.3C712.773 202.633 709.273 205.967 704.806 208.3C700.406 210.633 695.473 211.8 690.006 211.8ZM690.006 197C693.273 197 696.04 195.8 698.306 193.4C700.64 191 701.806 187.567 701.806 183.1C701.806 178.633 700.673 175.2 698.406 172.8C696.206 170.4 693.473 169.2 690.206 169.2C686.873 169.2 684.106 170.4 681.906 172.8C679.706 175.133 678.606 178.567 678.606 183.1C678.606 187.567 679.673 191 681.806 193.4C684.006 195.8 686.74 197 690.006 197ZM767.278 154.6C773.811 154.6 779.011 156.733 782.878 161C786.811 165.2 788.778 171 788.778 178.4V211H771.778V180.7C771.778 176.967 770.811 174.067 768.878 172C766.945 169.933 764.345 168.9 761.078 168.9C757.811 168.9 755.211 169.933 753.278 172C751.345 174.067 750.378 176.967 750.378 180.7V211H733.278V155.2H750.378V162.6C752.111 160.133 754.445 158.2 757.378 156.8C760.311 155.333 763.611 154.6 767.278 154.6ZM877.552 140.8V154.5H848.952V169.3H870.352V182.6H848.952V211H831.852V140.8H877.552ZM944.14 182.2C944.14 183.8 944.04 185.467 943.84 187.2H905.14C905.407 190.667 906.507 193.333 908.44 195.2C910.44 197 912.873 197.9 915.74 197.9C920.007 197.9 922.973 196.1 924.64 192.5H942.84C941.907 196.167 940.207 199.467 937.74 202.4C935.34 205.333 932.307 207.633 928.64 209.3C924.973 210.967 920.873 211.8 916.34 211.8C910.873 211.8 906.007 210.633 901.74 208.3C897.473 205.967 894.14 202.633 891.74 198.3C889.34 193.967 888.14 188.9 888.14 183.1C888.14 177.3 889.307 172.233 891.64 167.9C894.04 163.567 897.373 160.233 901.64 157.9C905.907 155.567 910.807 154.4 916.34 154.4C921.74 154.4 926.54 155.533 930.74 157.8C934.94 160.067 938.207 163.3 940.54 167.5C942.94 171.7 944.14 176.6 944.14 182.2ZM926.64 177.7C926.64 174.767 925.64 172.433 923.64 170.7C921.64 168.967 919.14 168.1 916.14 168.1C913.273 168.1 910.84 168.933 908.84 170.6C906.907 172.267 905.707 174.633 905.24 177.7H926.64ZM975.261 164.5C977.261 161.433 979.761 159.033 982.761 157.3C985.761 155.5 989.094 154.6 992.761 154.6V172.7H988.061C983.794 172.7 980.594 173.633 978.461 175.5C976.328 177.3 975.261 180.5 975.261 185.1V211H958.161V155.2H975.261V164.5Z" fill="white"/>
<path d="M1010.27 211.432C1007.77 211.432 1005.52 210.872 1003.5 209.752C1001.48 208.6 999.899 207 998.747 204.952C997.595 202.872 997.019 200.472 997.019 197.752C997.019 195.064 997.611 192.68 998.795 190.6C999.979 188.52 1001.6 186.92 1003.64 185.8C1005.69 184.68 1007.98 184.12 1010.51 184.12C1013.04 184.12 1015.32 184.68 1017.37 185.8C1019.42 186.92 1021.04 188.52 1022.22 190.6C1023.4 192.68 1024 195.064 1024 197.752C1024 200.44 1023.39 202.824 1022.17 204.904C1020.96 206.984 1019.29 208.6 1017.18 209.752C1015.1 210.872 1012.8 211.432 1010.27 211.432ZM1010.27 206.68C1011.68 206.68 1012.99 206.344 1014.2 205.672C1015.45 205 1016.46 203.992 1017.23 202.648C1018 201.304 1018.38 199.672 1018.38 197.752C1018.38 195.832 1018.01 194.216 1017.28 192.904C1016.54 191.56 1015.56 190.552 1014.35 189.88C1013.13 189.208 1011.82 188.872 1010.41 188.872C1009 188.872 1007.69 189.208 1006.48 189.88C1005.29 190.552 1004.35 191.56 1003.64 192.904C1002.94 194.216 1002.59 195.832 1002.59 197.752C1002.59 200.6 1003.31 202.808 1004.75 204.376C1006.22 205.912 1008.06 206.68 1010.27 206.68Z" fill="white"/>
<circle cx="514.5" cy="156.5" r="24.5" fill="#181414"/>
<circle cx="689.5" cy="180.5" r="16.5" fill="white"/>
<circle cx="689.5" cy="217.5" r="24.5" fill="#181414"/>
</svg>
