<svg width="1047" height="188" viewBox="0 0 1047 188" fill="none" xmlns="http://www.w3.org/2000/svg">
<path d="M109.426 32.5891L106.459 36.6136L109.426 32.5891ZM105.728 11.5875L101.564 8.8187L101.564 8.8187L105.728 11.5875ZM143.315 57.5741L140.348 61.5986L143.315 57.5741ZM169.6 36.824L164.869 38.4411V38.4411L169.6 36.824ZM160.855 26.4603L158.517 30.8799L160.855 26.4603ZM123.902 6.9106L121.563 11.3302L123.902 6.9106ZM176.9 70.527L179.867 74.5515L176.9 70.527ZM195.529 73.8078L199.693 71.039H199.693L195.529 73.8078ZM108.609 120.875L111.576 124.899H111.576L108.609 120.875ZM105.165 140.429L109.329 137.66L109.329 137.66L105.165 140.429ZM123.795 143.71L126.762 147.734H126.762L123.795 143.71ZM192.086 93.3618L189.119 89.3373L192.086 93.3618ZM112.393 28.5646C107.994 25.321 106.864 18.9077 109.891 14.3562L101.564 8.8187C95.5833 17.8122 97.7656 30.2043 106.459 36.6136L112.393 28.5646ZM146.282 53.5496L112.393 28.5646L106.459 36.6136L140.348 61.5986L146.282 53.5496ZM164.869 38.4411C167.007 44.6972 164.728 50.2769 160.743 53.4234C156.791 56.5425 151.272 57.2281 146.282 53.5496L140.348 61.5986C149.313 68.2075 159.802 66.9061 166.939 61.2724C174.041 55.666 177.927 45.727 174.331 35.2069L164.869 38.4411ZM158.517 30.8799C161.428 32.42 163.732 35.1147 164.869 38.4411L174.331 35.2069C172.398 29.5509 168.429 24.8105 163.193 22.0407L158.517 30.8799ZM121.563 11.3302L158.517 30.8799L163.193 22.0407L126.24 2.49098L121.563 11.3302ZM109.891 14.3562C112.525 10.3951 117.455 9.15683 121.563 11.3302L126.24 2.49098C117.541 -2.11077 107.01 0.629716 101.564 8.8187L109.891 14.3562ZM179.867 74.5515C183.663 71.7529 188.754 72.6494 191.366 76.5765L199.693 71.039C193.917 62.3548 182.327 60.3137 173.933 66.5025L179.867 74.5515ZM111.576 124.899L179.867 74.5515L173.933 66.5025L105.642 116.85L111.576 124.899ZM109.329 137.66C106.612 133.575 107.628 127.81 111.576 124.899L105.642 116.85C97.3997 122.927 95.3315 134.671 101.002 143.198L109.329 137.66ZM120.828 139.685C117.031 142.484 111.94 141.587 109.329 137.66L101.002 143.198C106.777 151.882 118.367 153.923 126.762 147.734L120.828 139.685ZM189.119 89.3373L120.828 139.685L126.762 147.734L195.053 97.3862L189.119 89.3373ZM191.366 76.5765C194.082 80.6611 193.067 86.4264 189.119 89.3373L195.053 97.3862C203.295 91.3097 205.363 79.5657 199.693 71.039L191.366 76.5765Z" fill="#00BB56"/>
<path fill-rule="evenodd" clip-rule="evenodd" d="M92.7248 63.8283C88.5314 57.5227 80.1908 56.0539 74.0956 60.5476L5.80451 110.895C1.99157 113.706 -0.0394783 118.185 0.000649428 122.688C-0.0417137 127.194 1.98946 131.676 5.80445 134.488L74.0955 184.836C80.1908 189.33 88.5314 187.861 92.7248 181.555C96.9182 175.25 95.3764 166.495 89.2812 162.002L35.9622 122.692L89.2812 83.3823C95.3765 78.8886 96.9182 70.134 92.7248 63.8283Z" fill="#00BB56"/>
<path d="M308.666 123.6H282.466L278.266 136H260.366L285.766 65.8H305.566L330.966 136H312.866L308.666 123.6ZM304.266 110.4L295.566 84.7L286.966 110.4H304.266ZM377.696 79.6C384.229 79.6 389.429 81.7333 393.296 86C397.229 90.2 399.196 96 399.196 103.4V136H382.196V105.7C382.196 101.967 381.229 99.0667 379.296 97C377.363 94.9333 374.763 93.9 371.496 93.9C368.229 93.9 365.629 94.9333 363.696 97C361.763 99.0667 360.796 101.967 360.796 105.7V136H343.696V80.2H360.796V87.6C362.529 85.1333 364.863 83.2 367.796 81.8C370.729 80.3333 374.029 79.6 377.696 79.6ZM412.679 108C412.679 102.267 413.746 97.2333 415.879 92.9C418.079 88.5667 421.046 85.2333 424.779 82.9C428.512 80.5667 432.679 79.4 437.279 79.4C440.946 79.4 444.279 80.1667 447.279 81.7C450.346 83.2333 452.746 85.3 454.479 87.9V62H471.579V136H454.479V128C452.879 130.667 450.579 132.8 447.579 134.4C444.646 136 441.212 136.8 437.279 136.8C432.679 136.8 428.512 135.633 424.779 133.3C421.046 130.9 418.079 127.533 415.879 123.2C413.746 118.8 412.679 113.733 412.679 108ZM454.479 108.1C454.479 103.833 453.279 100.467 450.879 98C448.546 95.5333 445.679 94.3 442.279 94.3C438.879 94.3 435.979 95.5333 433.579 98C431.246 100.4 430.079 103.733 430.079 108C430.079 112.267 431.246 115.667 433.579 118.2C435.979 120.667 438.879 121.9 442.279 121.9C445.679 121.9 448.546 120.667 450.879 118.2C453.279 115.733 454.479 112.367 454.479 108.1ZM541.55 107.2C541.55 108.8 541.45 110.467 541.25 112.2H502.55C502.817 115.667 503.917 118.333 505.85 120.2C507.85 122 510.283 122.9 513.15 122.9C517.417 122.9 520.383 121.1 522.05 117.5H540.25C539.317 121.167 537.617 124.467 535.15 127.4C532.75 130.333 529.717 132.633 526.05 134.3C522.383 135.967 518.283 136.8 513.75 136.8C508.283 136.8 503.417 135.633 499.15 133.3C494.883 130.967 491.55 127.633 489.15 123.3C486.75 118.967 485.55 113.9 485.55 108.1C485.55 102.3 486.717 97.2333 489.05 92.9C491.45 88.5667 494.783 85.2333 499.05 82.9C503.317 80.5667 508.217 79.4 513.75 79.4C519.15 79.4 523.95 80.5333 528.15 82.8C532.35 85.0667 535.617 88.3 537.95 92.5C540.35 96.7 541.55 101.6 541.55 107.2ZM524.05 102.7C524.05 99.7667 523.05 97.4333 521.05 95.7C519.05 93.9667 516.55 93.1 513.55 93.1C510.683 93.1 508.25 93.9333 506.25 95.6C504.317 97.2667 503.117 99.6333 502.65 102.7H524.05ZM572.671 89.5C574.671 86.4333 577.171 84.0333 580.171 82.3C583.171 80.5 586.504 79.6 590.171 79.6V97.7H585.471C581.204 97.7 578.004 98.6333 575.871 100.5C573.738 102.3 572.671 105.5 572.671 110.1V136H555.571V80.2H572.671V89.5ZM626.045 136.8C621.178 136.8 616.845 135.967 613.045 134.3C609.245 132.633 606.245 130.367 604.045 127.5C601.845 124.567 600.611 121.3 600.345 117.7H617.245C617.445 119.633 618.345 121.2 619.945 122.4C621.545 123.6 623.511 124.2 625.845 124.2C627.978 124.2 629.611 123.8 630.745 123C631.945 122.133 632.545 121.033 632.545 119.7C632.545 118.1 631.711 116.933 630.045 116.2C628.378 115.4 625.678 114.533 621.945 113.6C617.945 112.667 614.611 111.7 611.945 110.7C609.278 109.633 606.978 108 605.045 105.8C603.111 103.533 602.145 100.5 602.145 96.7C602.145 93.5 603.011 90.6 604.745 88C606.545 85.3333 609.145 83.2333 612.545 81.7C616.011 80.1667 620.111 79.4 624.845 79.4C631.845 79.4 637.345 81.1333 641.345 84.6C645.411 88.0667 647.745 92.6667 648.345 98.4H632.545C632.278 96.4667 631.411 94.9333 629.945 93.8C628.545 92.6667 626.678 92.1 624.345 92.1C622.345 92.1 620.811 92.5 619.745 93.3C618.678 94.0333 618.145 95.0667 618.145 96.4C618.145 98 618.978 99.2 620.645 100C622.378 100.8 625.045 101.6 628.645 102.4C632.778 103.467 636.145 104.533 638.745 105.6C641.345 106.6 643.611 108.267 645.545 110.6C647.545 112.867 648.578 115.933 648.645 119.8C648.645 123.067 647.711 126 645.845 128.6C644.045 131.133 641.411 133.133 637.945 134.6C634.545 136.067 630.578 136.8 626.045 136.8ZM689.506 136.8C684.04 136.8 679.106 135.633 674.706 133.3C670.373 130.967 666.94 127.633 664.406 123.3C661.94 118.967 660.706 113.9 660.706 108.1C660.706 102.367 661.973 97.3333 664.506 93C667.04 88.6 670.506 85.2333 674.906 82.9C679.306 80.5667 684.24 79.4 689.706 79.4C695.173 79.4 700.106 80.5667 704.506 82.9C708.906 85.2333 712.373 88.6 714.906 93C717.44 97.3333 718.706 102.367 718.706 108.1C718.706 113.833 717.406 118.9 714.806 123.3C712.273 127.633 708.773 130.967 704.306 133.3C699.906 135.633 694.973 136.8 689.506 136.8ZM689.506 122C692.773 122 695.54 120.8 697.806 118.4C700.14 116 701.306 112.567 701.306 108.1C701.306 103.633 700.173 100.2 697.906 97.8C695.706 95.4 692.973 94.2 689.706 94.2C686.373 94.2 683.606 95.4 681.406 97.8C679.206 100.133 678.106 103.567 678.106 108.1C678.106 112.567 679.173 116 681.306 118.4C683.506 120.8 686.24 122 689.506 122ZM766.778 79.6C773.311 79.6 778.511 81.7333 782.378 86C786.311 90.2 788.278 96 788.278 103.4V136H771.278V105.7C771.278 101.967 770.311 99.0667 768.378 97C766.445 94.9333 763.845 93.9 760.578 93.9C757.311 93.9 754.711 94.9333 752.778 97C750.845 99.0667 749.878 101.967 749.878 105.7V136H732.778V80.2H749.878V87.6C751.611 85.1333 753.945 83.2 756.878 81.8C759.811 80.3333 763.111 79.6 766.778 79.6ZM877.052 65.8V79.5H848.452V94.3H869.852V107.6H848.452V136H831.352V65.8H877.052ZM943.64 107.2C943.64 108.8 943.54 110.467 943.34 112.2H904.64C904.907 115.667 906.007 118.333 907.94 120.2C909.94 122 912.373 122.9 915.24 122.9C919.507 122.9 922.473 121.1 924.14 117.5H942.34C941.407 121.167 939.707 124.467 937.24 127.4C934.84 130.333 931.807 132.633 928.14 134.3C924.473 135.967 920.373 136.8 915.84 136.8C910.373 136.8 905.507 135.633 901.24 133.3C896.973 130.967 893.64 127.633 891.24 123.3C888.84 118.967 887.64 113.9 887.64 108.1C887.64 102.3 888.807 97.2333 891.14 92.9C893.54 88.5667 896.873 85.2333 901.14 82.9C905.407 80.5667 910.307 79.4 915.84 79.4C921.24 79.4 926.04 80.5333 930.24 82.8C934.44 85.0667 937.707 88.3 940.04 92.5C942.44 96.7 943.64 101.6 943.64 107.2ZM926.14 102.7C926.14 99.7667 925.14 97.4333 923.14 95.7C921.14 93.9667 918.64 93.1 915.64 93.1C912.773 93.1 910.34 93.9333 908.34 95.6C906.407 97.2667 905.207 99.6333 904.74 102.7H926.14ZM974.761 89.5C976.761 86.4333 979.261 84.0333 982.261 82.3C985.261 80.5 988.594 79.6 992.261 79.6V97.7H987.561C983.294 97.7 980.094 98.6333 977.961 100.5C975.828 102.3 974.761 105.5 974.761 110.1V136H957.661V80.2H974.761V89.5Z" fill="white"/>
<path d="M1010.27 136.432C1007.77 136.432 1005.52 135.872 1003.5 134.752C1001.48 133.6 999.899 132 998.747 129.952C997.595 127.872 997.019 125.472 997.019 122.752C997.019 120.064 997.611 117.68 998.795 115.6C999.979 113.52 1001.6 111.92 1003.64 110.8C1005.69 109.68 1007.98 109.12 1010.51 109.12C1013.04 109.12 1015.32 109.68 1017.37 110.8C1019.42 111.92 1021.04 113.52 1022.22 115.6C1023.4 117.68 1024 120.064 1024 122.752C1024 125.44 1023.39 127.824 1022.17 129.904C1020.96 131.984 1019.29 133.6 1017.18 134.752C1015.1 135.872 1012.8 136.432 1010.27 136.432ZM1010.27 131.68C1011.68 131.68 1012.99 131.344 1014.2 130.672C1015.45 130 1016.46 128.992 1017.23 127.648C1018 126.304 1018.38 124.672 1018.38 122.752C1018.38 120.832 1018.01 119.216 1017.28 117.904C1016.54 116.56 1015.56 115.552 1014.35 114.88C1013.13 114.208 1011.82 113.872 1010.41 113.872C1009 113.872 1007.69 114.208 1006.48 114.88C1005.29 115.552 1004.35 116.56 1003.64 117.904C1002.94 119.216 1002.59 120.832 1002.59 122.752C1002.59 125.6 1003.31 127.808 1004.75 129.376C1006.22 130.912 1008.06 131.68 1010.27 131.68Z" fill="white"/>
<circle cx="514.5" cy="81.5" r="24.5" fill="#141414"/>
<circle cx="689.5" cy="105.5" r="16.5" fill="white"/>
<circle cx="689.5" cy="142.5" r="24.5" fill="#141414"/>
</svg>
